<?xml version="1.0" encoding="UTF-8"?>
<svg id="uuid-b27a5dbd-89cf-4ed4-b5d7-1c7dcb2cc67e" data-name="&amp;lt;Layer&amp;gt;" xmlns="http://www.w3.org/2000/svg" viewBox="0 0 3066 1971">
  <defs>
    <style>
      .uuid-aed07b97-0b0e-4a83-9c18-97473182d54e, .uuid-cf0103e0-1997-4a7e-8c93-01cdaeedf977, .uuid-71b80801-2d16-4993-b3b7-5214a1044937, .uuid-4771f920-a52e-48aa-bf6c-341bbc3dc417, .uuid-22c20ba6-c7c8-4e52-8340-4247ccc5c761, .uuid-532aa5bb-e063-41e7-9793-7c17b73b53bd {
        stroke-width: 0px;
        fill: #ffffff
      }

      .uuid-cf0103e0-1997-4a7e-8c93-01cdaeedf977 {
        fill: #ffffff00;
      }

      .uuid-71b80801-2d16-4993-b3b7-5214a1044937 {
        fill: #ffffff00;
      }

      .uuid-4771f920-a52e-48aa-bf6c-341bbc3dc417 {
        fill: #ffffff00;
      }

      .uuid-22c20ba6-c7c8-4e52-8340-4247ccc5c761 {
        fill: #ffffff00;
      }

      .uuid-532aa5bb-e063-41e7-9793-7c17b73b53bd {
        fill: #ffffff00;
      }
    </style>
  </defs>
  <rect class="uuid-71b80801-2d16-4993-b3b7-5214a1044937" width="3066" height="1971"/>
  <g>
    <path class="uuid-cf0103e0-1997-4a7e-8c93-01cdaeedf977" d="m1774.82,1296.59c-62.56,62.68-143.24,105.54-229.64,122.92-.02,0-.03,0-.03,0-22.95.43-46.01-.97-68.96-4.28l-1.55-.21c-27.04-4-53.95-10.64-80.01-19.71-150.14-52.38-257.35-179.26-284.53-334.48,110.66,48.28,229.34,94.59,353.16,137.79,106,36.98,210.46,69.84,311.56,97.97Z"/>
    <path class="uuid-4771f920-a52e-48aa-bf6c-341bbc3dc417" d="m1825.46,1310.39c-74.98,66.26-171.08,104.54-270,108.77-3.43.16-6.84.27-10.28.34,86.4-17.38,167.08-60.24,229.64-122.92.67.2,1.34.39,2,.56,16.3,4.54,32.52,8.95,48.64,13.24Z"/>
    <path class="uuid-22c20ba6-c7c8-4e52-8340-4247ccc5c761" d="m2304.61,1371.06c-110.55-6.45-257.31-32.34-425.56-75.08-4.58-1.15-9.19-2.32-13.81-3.52-.68-.17-1.34-.35-2.02-.53-2.27-.57-4.56-1.16-6.83-1.76-2.54-.65-5.08-1.32-7.63-1.99-120.95-31.65-247.57-70.47-376.48-115.44-131.61-45.92-257.39-95.37-373.8-146.96-167.9-74.39-306.66-148.9-401.28-215.47-127.13-89.45-129.28-132.29-124.3-146.56,18.17-52.07,214.66-62.68,603.21,34.91-7.21,9.09-14.1,18.48-20.59,28.08-87.19-17.79-161.6-27.26-215.68-27.46-65.05-.24-101.2,12.58-110.47,39.2-9.29,26.62,11.03,59.13,62.12,99.42,24.1,18.99,55.19,39.73,92.08,61.49,30.36,17.9,64.63,36.48,102.17,55.34,114.78,57.73,254.48,115.82,404.01,167.97,120.09,41.9,240.57,77.71,348.44,103.56,17.82,4.25,35.36,8.25,52.37,11.96,4.66,1.03,9.27,2.01,13.86,2.97.64.14,1.3.28,1.94.42,1.3.28,2.61.54,3.91.82l.55.11c2.96.62,5.92,1.22,8.86,1.81,87.24,17.82,161.67,27.28,215.76,27.46,65.01.23,101.12-12.6,110.39-39.21,9.28-26.6-11.03-59.11-62.08-99.37-42.45-33.48-106.66-72.37-186-112.69.91-11.54,1.36-23.17,1.34-34.79,364.96,165.26,512.22,295.8,494.05,347.87-4.99,14.26-33.32,46.47-188.51,37.44Z"/>
    <path class="uuid-aed07b97-0b0e-4a83-9c18-97473182d54e" d="m2518.99,1342.64c15.33-43.95-28.78-103.05-131.1-175.64-92.31-65.48-226.98-138.63-389.82-211.78-3.08-46.83-13.29-92.75-30.36-136.65-.42-1.08-.86-2.14-1.28-3.22l-.83-2.12c-.67-1.63-1.34-3.27-1.99-4.8-.7-1.73-1.42-3.42-2.15-5.09-.65-1.55-1.32-3.09-2.01-4.62-.12-.33-.27-.65-.42-.97-.67-1.5-1.33-2.99-2.01-4.43-1.17-2.55-2.37-5.11-3.59-7.61-1.14-2.41-2.34-4.84-3.54-7.27l-1.19-2.34c-.75-1.46-1.5-2.92-2.26-4.37-.29-.55-.58-1.1-.87-1.66-1.22-2.31-2.45-4.63-3.72-6.9-.88-1.6-1.79-3.2-2.62-4.69-.71-1.27-1.43-2.54-2.16-3.78-.79-1.4-1.58-2.76-2.39-4.11-.71-1.27-1.47-2.5-2.3-3.86l-.42-.69c-.78-1.31-1.59-2.63-2.33-3.81-55.35-89.32-140.58-157.63-240.04-192.32-88.58-30.91-183.04-34.22-273.2-9.59-85.32,23.32-161.37,69.94-220.49,135.06-173-44.01-323.91-70.51-436.94-76.64-125.29-6.82-196.58,12.02-211.92,55.98-15.51,44.44,29.72,104.32,134.42,178,28.92,20.34,61.87,41.42,98.42,62.96,83.14,49.02,184.91,100.57,300.48,152.02,11.14,81.68,43.97,158.95,95.18,223.89,35.38,44.87,78.54,82.46,127.35,111.24,26.08,15.38,53.78,28.23,82.74,38.33,27.34,9.54,55.59,16.53,83.95,20.8l2.61,1.52,2.85-.74c69.71,9.6,141.87,2.84,208.86-19.61,64.44-21.61,124.11-57.66,173.08-104.53,176.32,45.51,330.43,73.08,446.05,79.8,127.81,7.44,200.47-11.32,215.97-55.78Zm-1345.66-593.19c11.26-17.4,23.89-34.11,37.54-49.71,96.6-110.36,238.77-162.82,379.85-145.05,3.46.43,6.93.91,10.4,1.42,26.65,4.01,53.24,10.54,79.42,19.68,93.54,32.63,173.71,96.87,225.82,180.97.68,1.08,1.34,2.15,1.96,3.19.22.38.47.79.75,1.25.64,1.04,1.27,2.09,1.88,3.14l.12.2c.76,1.27,1.5,2.54,2.23,3.84l.16.24c.62,1.07,1.24,2.15,1.91,3.35.85,1.48,1.68,2.98,2.51,4.49,1.21,2.16,2.36,4.32,3.51,6.5l.12.22c.2.37.4.76.6,1.14l.09.2c.71,1.35,1.42,2.7,2.1,4.06l.8,1.53c.09.2.19.39.29.59,1.12,2.27,2.24,4.55,3.35,6.83,1.14,2.39,2.27,4.78,3.39,7.2.55,1.19,1.09,2.4,1.63,3.61l.49,1.11c.69,1.53,1.36,3.05,2.02,4.6l.08.19c.66,1.51,1.32,3.05,2,4.7.64,1.5,1.25,3.03,1.86,4.54l.78,1.99c.39.99.79,1.97,1.19,2.99,17.03,43.79,26.81,89.73,29.05,136.51.98,20.71.47,41.66-1.54,62.26-3.34,34.34-10.85,68.4-22.3,101.25-10.43,29.89-24.04,58.5-40.49,85.18v.02c-18.53-3.96-37.76-8.28-57.39-12.94-.62-.13-1.23-.28-1.85-.43l-3.07-.73c-106.98-25.64-226.56-61.17-345.79-102.76-144.73-50.51-280.1-106.53-392.21-162.33,1.12-9.42,2.55-18.79,4.28-27.98,2.21-11.95,5.01-24.11,8.33-36.14.16-.6.32-1.19.5-1.78h-.02c.13-.44.25-.9.38-1.33,2.35-8.23,4.97-16.52,7.82-24.66,2.84-8.13,5.84-16.03,8.97-23.52,1.52-3.69,3.1-7.34,4.72-10.96,3.14-7.08,6.49-14.06,9.97-20.87.77-1.48,1.52-2.94,2.29-4.4l.19-.36c.23-.42.45-.84.68-1.26,5.76-10.84,12.03-21.55,18.67-31.8Zm821.24,300.23c73.48,37.81,132.77,73.96,172.19,105.06,44.62,35.2,56.74,58.64,53.19,68.84-3.56,10.18-27.6,21.02-84.44,20.82-50.2-.16-119.12-8.75-200.18-24.85,15.21-25.9,27.91-53.41,37.9-82.04,9.98-28.58,17.13-58.05,21.35-87.83Zm-892.6-216.12c-3.01,8.64-5.81,17.45-8.31,26.22-3.93,13.89-7.22,27.92-9.77,41.71-1.23,6.55-2.33,13.2-3.26,19.88-73.47-37.79-132.74-73.94-172.16-105.01-44.68-35.21-56.79-58.67-53.23-68.87,3.57-10.2,27.63-21.02,84.51-20.83,50.21.18,119.1,8.75,200.12,24.86-3.51,5.99-6.89,12.08-10.11,18.2-6.61,12.5-12.75,25.57-18.26,38.85-3.31,7.95-6.52,16.37-9.52,25Zm453.5,585.59c-3.43.16-6.84.27-10.28.34-.02,0-.03,0-.03,0-22.95.43-46.01-.97-68.96-4.28l-1.55-.21c-27.04-4-53.95-10.64-80.01-19.71-150.14-52.38-257.35-179.26-284.53-334.48,110.66,48.28,229.34,94.59,353.16,137.79,106,36.98,210.46,69.84,311.56,97.97.67.2,1.34.39,2,.56,16.3,4.54,32.52,8.95,48.64,13.24-74.98,66.26-171.08,104.54-270,108.77Zm749.15-48.09c-110.55-6.45-257.31-32.34-425.56-75.08-4.58-1.15-9.19-2.32-13.81-3.52-.68-.17-1.34-.35-2.02-.53-2.27-.57-4.56-1.16-6.83-1.76-2.54-.65-5.08-1.32-7.63-1.99-120.95-31.65-247.57-70.47-376.48-115.44-131.61-45.92-257.39-95.37-373.8-146.96-167.9-74.39-306.66-148.9-401.28-215.47-127.13-89.45-129.28-132.29-124.3-146.56,18.17-52.07,214.66-62.68,603.21,34.91-7.21,9.09-14.1,18.48-20.59,28.08-87.19-17.79-161.6-27.26-215.68-27.46-65.05-.24-101.2,12.58-110.47,39.2-9.29,26.62,11.03,59.13,62.12,99.42,24.1,18.99,55.19,39.73,92.08,61.49,30.36,17.9,64.63,36.48,102.17,55.34,114.78,57.73,254.48,115.82,404.01,167.97,120.09,41.9,240.57,77.71,348.44,103.56,17.82,4.25,35.36,8.25,52.37,11.96,4.66,1.03,9.27,2.01,13.86,2.97.64.14,1.3.28,1.94.42,1.3.28,2.61.54,3.91.82l.55.11c2.96.62,5.92,1.22,8.86,1.81,87.24,17.82,161.67,27.28,215.76,27.46,65.01.23,101.12-12.6,110.39-39.21,9.28-26.6-11.03-59.11-62.08-99.37-42.45-33.48-106.66-72.37-186-112.69.91-11.54,1.36-23.17,1.34-34.79,364.96,165.26,512.22,295.8,494.05,347.87-4.99,14.26-33.32,46.47-188.51,37.44Z"/>
    <path class="uuid-cf0103e0-1997-4a7e-8c93-01cdaeedf977" d="m1898.51,1056.93c-1.77-.28-3.56-.55-5.34-.84-227.22-36.42-620.04-185.15-751.64-247.97,3.14-7.08,6.49-14.06,9.97-20.87.77-1.48,1.52-2.94,2.29-4.4l.19-.36c.23-.42.45-.84.68-1.26,5.76-10.84,12.03-21.55,18.67-31.8,11.26-17.4,23.89-34.11,37.54-49.71,96.6-110.36,238.77-162.82,379.85-145.05,4.9,1.51,9.77,3.11,14.61,4.8,191.71,66.89,314.37,254.76,298.32,456.88-1.09,13.57-2.79,27.12-5.14,40.56Z"/>
    <path class="uuid-cf0103e0-1997-4a7e-8c93-01cdaeedf977" d="m1847.62,1200.32l-3.07-.73c-106.98-25.64-226.56-61.17-345.79-102.76-144.73-50.51-280.1-106.53-392.21-162.33,1.12-9.42,2.55-18.79,4.28-27.98,2.21-11.95,5.01-24.11,8.33-36.14,136.92,65.12,535.96,247.81,755.03,273.79-7.57,19.36-16.45,38.15-26.57,56.14Z"/>
    <path class="uuid-532aa5bb-e063-41e7-9793-7c17b73b53bd" d="m1103.89,1012.22c.46,7.64,1.11,15.35,2.01,23.04-.29.02-.57.05-.86.07l-1.15-23.11Z"/>
    <path class="uuid-4771f920-a52e-48aa-bf6c-341bbc3dc417" d="m1906.86,1213.68v.02c-18.53-3.96-37.76-8.28-57.39-12.94-.62-.13-1.23-.28-1.85-.43,10.12-17.98,18.99-36.78,26.57-56.14-219.08-25.98-618.11-208.67-755.03-273.79.16-.6.32-1.19.5-1.78h-.02c.13-.44.25-.9.38-1.33,2.35-8.23,4.97-16.52,7.82-24.66,2.84-8.13,5.84-16.03,8.97-23.52,1.52-3.69,3.1-7.34,4.72-10.96,131.6,62.81,524.42,211.54,751.64,247.97,1.78.29,3.57.56,5.34.84,2.35-13.44,4.06-26.99,5.14-40.56,16.05-202.13-106.61-390-298.32-456.88-4.84-1.69-9.71-3.29-14.61-4.8,3.46.43,6.93.91,10.4,1.42,26.65,4.01,53.24,10.54,79.42,19.68,93.54,32.63,173.71,96.87,225.82,180.97.68,1.08,1.34,2.15,1.96,3.19.22.38.47.79.75,1.25.64,1.04,1.27,2.09,1.88,3.14l.12.2c.76,1.27,1.5,2.54,2.23,3.84l.16.24c.62,1.07,1.24,2.15,1.91,3.35.85,1.48,1.68,2.98,2.51,4.49,1.21,2.16,2.36,4.32,3.51,6.5l.12.22c.2.37.4.76.6,1.14l.09.2c.71,1.35,1.42,2.7,2.1,4.06l.8,1.53c.09.2.19.39.29.59,1.12,2.27,2.24,4.55,3.35,6.83,1.14,2.39,2.27,4.78,3.39,7.2.55,1.19,1.09,2.4,1.63,3.61l.49,1.11c.69,1.53,1.36,3.05,2.02,4.6l.08.19c.66,1.51,1.32,3.05,2,4.7.64,1.5,1.25,3.03,1.86,4.54l.78,1.99c.39.99.79,1.97,1.19,2.99,17.03,43.79,26.81,89.73,29.05,136.51.98,20.71.47,41.66-1.54,62.26-3.34,34.34-10.85,68.4-22.3,101.25-10.43,29.89-24.04,58.5-40.49,85.18Z"/>
  </g>
</svg>